# Blender v3.0.0 OBJ File: ''
# www.blender.org
mtllib D10.mtl
o Solid
v 0.808398 -0.100000 -0.262665
v 0.808398 0.100000 0.262665
v 0.499618 -0.100000 0.687664
v 0.000000 0.100000 0.850000
v -0.499617 -0.100000 0.687664
v -0.808398 0.100000 0.262664
v -0.808398 -0.100000 -0.262664
v -0.499617 0.100000 -0.687664
v 0.000000 -0.100000 -0.850000
v 0.499617 0.100000 -0.687664
v 0.000000 0.800000 0.000000
v 0.000000 -0.800000 0.000000
vn -0.7384 -0.6302 0.2399
vn 0.0000 -0.6302 0.7764
vn 0.7384 -0.6302 0.2399
vn 0.4564 -0.6302 -0.6281
vn -0.4564 -0.6302 -0.6281
vn -0.6784 0.7008 -0.2204
vn -0.4193 0.7008 0.5771
vn 0.4193 0.7008 0.5771
vn 0.6784 0.7008 -0.2204
vn 0.0000 0.6302 -0.7764
vn -0.6784 -0.7008 0.2204
vn 0.0000 -0.7008 0.7134
vn 0.6784 -0.7008 0.2204
vn 0.4193 -0.7008 -0.5771
vn -0.4193 -0.7008 -0.5771
vn -0.7384 0.6302 -0.2399
vn -0.4564 0.6302 0.6281
vn 0.4564 0.6302 0.6281
vn 0.7384 0.6302 -0.2399
vn 0.0000 0.7008 -0.7134
usemtl None
s off
f 7//1 5//1 6//1
f 7//11 12//11 5//11
f 5//2 3//2 4//2
f 5//12 12//12 3//12
f 3//3 1//3 2//3
f 3//13 12//13 1//13
f 1//4 9//4 10//4
f 1//14 12//14 9//14
f 9//5 7//5 8//5
f 9//15 12//15 7//15
f 8//16 7//16 6//16
f 8//6 6//6 11//6
f 6//17 5//17 4//17
f 6//7 4//7 11//7
f 4//18 3//18 2//18
f 4//8 2//8 11//8
f 2//19 1//19 10//19
f 2//9 10//9 11//9
f 10//20 8//20 11//20
f 9//10 8//10 10//10
