# Blender v3.0.0 OBJ File: ''
# www.blender.org
mtllib D100.mtl
o D100_Tri_Inward_D100_Tri_Inward.001
v -0.016905 0.156055 0.987604
v -0.016905 -0.156055 0.987604
v 0.295706 0.000000 0.955279
v -0.328365 0.309362 0.892452
v -0.328365 0.001631 0.944549
v -0.021575 0.166880 0.985741
v -0.129371 -0.156403 0.979184
v -0.129371 -0.453018 0.882065
v 0.184887 -0.305806 0.933970
v 0.066021 0.443850 0.893666
v 0.066021 0.146045 0.987072
v 0.374818 0.277458 0.884607
v -0.540660 0.090170 0.836395
v -0.540660 -0.220962 0.811704
v -0.258919 -0.076413 0.962872
v 0.341804 -0.032475 0.939210
v 0.174286 -0.295819 0.939210
v 0.498529 -0.317123 0.806785
v -0.240301 0.292782 0.925491
v 0.061108 0.373807 0.925491
v -0.162074 0.602907 0.781176
v -0.037183 -0.410175 0.911248
v -0.314164 -0.266322 0.911248
v -0.301645 -0.580798 0.756098
v 0.335802 0.288770 0.896576
v 0.442867 -0.004401 0.896576
v 0.640514 0.233915 0.731454
v -0.471400 0.025760 0.881543
v -0.352313 0.314257 0.881543
v -0.653547 0.269774 0.707177
v 0.342546 -0.363814 0.866199
v 0.059858 -0.496101 0.866199
v 0.309500 -0.661384 0.683213
v 0.001383 0.525838 0.850584
v 0.299187 0.432428 0.850584
v 0.224967 0.717229 0.659524
v -0.378660 -0.399808 0.834728
v -0.535154 -0.129767 0.834728
v -0.667617 -0.386898 0.636080
v 0.573293 0.033745 0.818656
v 0.506277 -0.271085 0.818656
v 0.771766 -0.169671 0.612854
v -0.458960 0.381484 0.802388
v -0.203634 0.560988 0.802388
v -0.464435 0.660610 0.589826
v 0.077875 -0.613378 0.785941
v -0.231647 -0.573269 0.785941
v -0.105858 -0.816902 0.566979
v 0.373131 0.518562 0.769329
v 0.574269 0.279908 0.769329
v 0.641457 0.540621 0.544299
v -0.645662 -0.129488 0.752564
v -0.632767 0.182355 0.752564
v -0.852355 0.035248 0.521774
v 0.577290 -0.354322 0.735657
v 0.357134 -0.575555 0.735657
v 0.614112 -0.611124 0.499393
v -0.187191 0.669738 0.718617
v 0.124586 0.684155 0.718617
v -0.040594 0.877886 0.477147
v -0.325747 -0.633920 0.701451
v -0.565380 -0.433948 0.701451
v -0.570537 -0.683694 0.455028
v 0.685262 0.249662 0.684167
v 0.726881 -0.059660 0.684167
v 0.893330 0.120196 0.433029
v -0.687322 0.288109 0.666770
v -0.509066 0.544307 0.666770
v -0.748270 0.520627 0.411144
v 0.315627 -0.691978 0.649266
v 0.011128 -0.760480 0.649266
v 0.202160 -0.898623 0.389368
v 0.242147 0.736459 0.631659
v 0.512948 0.581284 0.631659
v 0.462352 0.806865 0.367695
v -0.689726 -0.383846 0.613955
v -0.784587 -0.086501 0.613955
v -0.893806 -0.285149 0.346122
v 0.780390 -0.188654 0.596156
v 0.649484 -0.471984 0.596156
v 0.858622 -0.396705 0.324644
v -0.453108 0.678455 0.578266
v -0.165195 0.798949 0.578266
v -0.367881 0.879032 0.303258
v -0.128474 -0.818273 0.560288
v -0.422164 -0.712639 0.560288
v -0.324720 -0.902804 0.281961
v 0.658223 0.522239 0.542226
v 0.803426 0.245963 0.542226
v 0.854568 0.449137 0.260750
v -0.849371 0.062506 0.524081
v -0.769818 0.364307 0.524081
v -0.938799 0.247464 0.239622
v 0.590100 -0.629198 0.505857
v 0.327576 -0.797999 0.505857
v 0.527760 -0.820789 0.218575
v -0.008300 0.873053 0.487554
v 0.299300 0.820189 0.487554
v 0.166036 0.966118 0.197607
v -0.591662 -0.655599 0.469176
v -0.782768 -0.408837 0.469176
v -0.778180 -0.602667 0.176715
v 0.888801 0.082954 0.450723
v 0.863032 -0.228090 0.450723
v 0.984400 -0.081556 0.155899
v -0.717694 0.546003 0.432198
v -0.488586 0.757950 0.432198
v -0.672848 0.727329 0.135157
v 0.160429 -0.896212 0.413602
v -0.151677 -0.897735 0.413602
v 0.004846 -0.993413 0.114486
v 0.492714 0.775409 0.394935
v 0.723879 0.565707 0.394935
v 0.668917 0.737384 0.093887
v -0.895003 -0.239672 0.376200
v -0.923806 0.071106 0.376200
v -0.993050 -0.092036 0.073356
v 0.827834 -0.432386 0.357397
v 0.639145 -0.681000 0.357397
v 0.795444 -0.603714 0.052895
v -0.319618 0.885010 0.338527
v -0.012549 0.940873 0.338527
v -0.178889 0.983332 0.032501
v -0.365703 -0.874141 0.319592
v -0.629861 -0.707910 0.319592
v -0.532566 -0.846301 0.012174
v 0.866191 0.399196 0.300591
v 0.948686 0.098186 0.300591
v 0.964406 0.264304 -0.008087
v -0.913587 0.293433 0.281525
v -0.771086 0.571113 0.281525
v -0.889330 0.456390 -0.028283
v 0.477344 -0.838625 0.262396
v 0.184698 -0.947119 0.262396
v 0.347209 -0.936537 -0.048413
v 0.216421 0.945524 0.243202
v 0.505495 0.827845 0.243202
v 0.376158 0.924022 -0.068480
v -0.802509 -0.553017 0.223946
v -0.936173 -0.270977 0.223946
v -0.900111 -0.426580 -0.088482
v 0.969406 -0.135575 0.204627
v 0.877450 -0.433831 0.204627
v 0.949979 -0.292889 -0.108421
v -0.625203 0.758159 0.185245
v -0.355929 0.915969 0.185245
v -0.501444 0.855625 -0.128296
v -0.051861 -0.984795 0.165800
v -0.357014 -0.919267 0.165800
v -0.207637 -0.966929 -0.148108
v 0.706004 0.692933 0.146294
v 0.886751 0.438486 0.146294
v 0.803680 0.570897 -0.167857
v -0.991365 -0.033710 0.126724
v -0.952766 0.276004 0.126724
v -0.974716 0.121477 -0.187543
v 0.755289 -0.646583 0.107093
v 0.517619 -0.848883 0.107093
v 0.634108 -0.744976 -0.207165
v -0.120096 0.988908 0.087398
v 0.191807 0.977534 0.087398
v 0.035494 0.973312 -0.226724
v -0.580535 -0.811421 0.067641
v -0.802839 -0.592347 0.067641
v -0.680305 -0.690334 -0.246219
v 0.977334 0.206230 0.047820
v 0.993272 -0.105472 0.047820
v 0.962812 0.049229 -0.265650
v -0.860551 0.508598 0.027936
v -0.661751 0.749203 0.027936
v -0.738925 0.610537 -0.285017
v 0.291041 -0.956677 0.007988
v -0.018075 -0.999805 0.007988
v 0.131626 -0.943432 -0.304319
v 0.431599 0.901986 -0.012025
v 0.688663 0.724982 -0.012025
v 0.536615 0.779331 -0.323556
v -0.927093 -0.373455 -0.032103
v -0.997080 -0.069293 -0.032103
v -0.915512 -0.210657 -0.342726
v 0.935125 -0.350444 -0.052247
v 0.781273 -0.621999 -0.052247
v 0.811110 -0.459543 -0.361830
v -0.452416 0.888858 -0.072458
v -0.155538 0.985169 -0.072458
v -0.285321 0.879507 -0.380866
v -0.266111 -0.959471 -0.092736
v -0.550077 -0.829949 -0.092736
v -0.380374 -0.833936 -0.399834
v 0.842373 0.526896 -0.113084
v 0.964270 0.239574 -0.113084
v 0.835987 0.354668 -0.418732
v -0.974632 0.179641 -0.133501
v -0.870431 0.473843 -0.133501
v -0.847597 0.300202 -0.437559
v 0.595902 -0.788155 -0.153989
v 0.320338 -0.934704 -0.153989
v 0.417809 -0.785629 -0.456314
v 0.092123 0.980329 -0.174550
v 0.394309 0.902249 -0.174550
v 0.220147 0.852006 -0.474995
v -0.726835 -0.658493 -0.195186
v -0.896914 -0.396796 -0.195186
v -0.729215 -0.473923 -0.493602
v 0.976405 -0.004693 -0.215897
v 0.925042 -0.312547 -0.215897
v 0.847197 -0.141347 -0.512131
v -0.713786 0.659158 -0.236686
v -0.467960 0.851465 -0.236686
v -0.522272 0.667619 -0.530582
v 0.081488 -0.962821 -0.257555
v -0.229678 -0.938570 -0.257555
v -0.064948 -0.833327 -0.548952
v 0.585973 0.760966 -0.278507
v 0.799036 0.532894 -0.278507
v 0.601807 0.562201 -0.567238
v -0.939666 -0.165231 -0.299543
v -0.942711 0.146864 -0.299543
v -0.810678 -0.007910 -0.585438
v 0.799296 -0.508232 -0.320667
v 0.590724 -0.740417 -0.320667
v 0.593149 -0.532824 -0.603550
v -0.245337 0.907153 -0.341881
v 0.065297 0.937472 -0.341881
v -0.076096 0.779654 -0.621570
v -0.426979 -0.828119 -0.363190
v -0.676510 -0.640645 -0.363190
v -0.461791 -0.614652 -0.639494
v 0.865621 0.320600 -0.384598
v 0.922981 0.013807 -0.384598
v 0.740776 0.138500 -0.657319
v -0.846868 0.343353 -0.406107
v -0.681928 0.608319 -0.406107
v -0.626340 0.389895 -0.675040
v 0.389815 -0.815535 -0.427724
v 0.089211 -0.899496 -0.427724
v 0.194032 -0.694682 -0.692653
v 0.258578 0.855061 -0.449453
v 0.536950 0.713917 -0.449453
v 0.318390 0.627943 -0.710152
v -0.757479 -0.451774 -0.471301
v -0.867400 -0.159662 -0.471301
v -0.642118 -0.241627 -0.727531
v 0.852301 -0.173965 -0.493275
v 0.736033 -0.463611 -0.493275
v 0.619278 -0.248585 -0.744782
v -0.505268 0.692161 -0.515381
v -0.223883 0.827199 -0.515381
v -0.280234 0.583934 -0.761899
v -0.090915 -0.838265 -0.537631
v -0.389616 -0.747765 -0.537631
v -0.181858 -0.600239 -0.778871
v 0.620396 0.549065 -0.560033
v 0.779517 0.280564 -0.560033
v 0.521075 0.308804 -0.795689
v -0.812686 0.010925 -0.582599
v -0.748647 0.316394 -0.582599
v -0.570776 0.119658 -0.812340
v 0.581886 -0.543107 -0.605345
v 0.328325 -0.725093 -0.605345
v 0.326253 -0.454569 -0.828810
v -0.064381 0.775313 -0.628287
v 0.245517 0.738226 -0.628287
v 0.063530 0.530850 -0.845081
v -0.461308 -0.602342 -0.651444
v -0.664765 -0.365661 -0.651444
v -0.385516 -0.331400 -0.861134
v 0.725840 0.133208 -0.674843
v 0.715987 -0.178746 -0.674843
v 0.480355 -0.015171 -0.876943
v -0.608805 0.376081 -0.698512
v -0.390818 0.599451 -0.698512
v -0.322837 0.315057 -0.892477
v 0.193485 -0.663753 -0.722493
v -0.118136 -0.681211 -0.722493
v 0.023472 -0.418969 -0.907697
v 0.288532 0.599156 -0.746834
v 0.530104 0.401532 -0.746834
v 0.244331 0.298666 -0.922551
v -0.588006 -0.242640 -0.771605
v -0.632641 0.066262 -0.771605
v -0.345816 -0.049969 -0.936971
v 0.570161 -0.199664 -0.796900
v 0.394414 -0.457589 -0.796900
v 0.255869 -0.174347 -0.950860
v -0.247950 0.244979 -0.937287
v -0.247950 0.530288 -0.810750
v 0.063528 0.404604 -0.912283
v -0.328711 -0.451166 -0.829698
v -0.328711 -0.156104 -0.931440
v -0.021947 -0.325903 -0.945148
v 0.140191 -0.055105 -0.988590
v 0.140191 0.255363 -0.956627
v 0.443698 0.091775 -0.891465
v -0.368379 -0.061431 -0.927644
v -0.368379 0.249039 -0.895699
v -0.064829 0.102137 -0.992656
v -0.101459 -0.282261 -0.953957
v -0.101459 0.027208 -0.994468
v 0.212773 -0.126823 -0.968836
vn 0.1029 0.0000 0.9947
vn -0.2170 0.1629 0.9625
vn -0.0112 -0.3112 0.9503
vn 0.1860 0.2941 0.9375
vn -0.4431 -0.0709 0.8937
vn 0.3555 -0.2262 0.9069
vn -0.1192 0.4435 0.8883
vn -0.2275 -0.4381 0.8696
vn 0.4935 0.1802 0.8509
vn -0.5128 0.2117 0.8320
vn 0.2468 -0.5274 0.8130
vn 0.1819 0.5801 0.7940
vn -0.5469 -0.3169 0.7749
vn 0.6396 -0.1406 0.7558
vn -0.3890 0.5533 0.7366
vn -0.0895 -0.6909 0.7174
vn 0.5475 0.4614 0.6981
vn -0.7337 0.0303 0.6788
vn 0.5329 -0.5303 0.6594
vn -0.0355 0.7675 0.6401
vn -0.5024 -0.6020 0.6206
vn 0.7920 0.1066 0.6012
vn -0.6677 0.4645 0.5817
vn 0.1815 -0.8068 0.5622
vn 0.4176 0.7287 0.5427
vn -0.8119 -0.2590 0.5232
vn 0.7843 -0.3623 0.5036
vn -0.3378 0.8072 0.4840
vn -0.2997 -0.8333 0.4644
vn 0.7928 0.4167 0.4448
vn -0.8752 0.2307 0.4252
vn 0.4944 -0.7689 0.4055
vn 0.1563 0.9093 0.3858
vn -0.7357 -0.5698 0.3661
vn 0.9349 -0.0775 0.3464
vn -0.6418 0.6938 0.3266
vn 0.0046 -0.9517 0.3069
vn 0.6436 0.7095 0.2871
vn -0.9595 -0.0889 0.2673
vn 0.7718 -0.5858 0.2475
vn -0.1743 0.9580 0.2277
vn -0.5210 -0.8279 0.2078
vn 0.9473 0.2596 0.1879
vn -0.8770 0.4501 0.1681
vn 0.3438 -0.9273 0.1482
vn 0.3739 0.9185 0.1283
vn -0.8983 -0.4257 0.1083
vn 0.9519 -0.2935 0.0884
vn -0.5044 0.8607 0.0685
vn -0.2097 -0.9766 0.0485
vn 0.8149 0.5789 0.0285
vn -0.9923 0.1237 0.0085
vn 0.6481 -0.7614 -0.0115
vn 0.0364 0.9988 -0.0315
vn -0.7010 -0.7113 -0.0516
vn 0.9961 0.0509 -0.0717
vn -0.7676 0.6343 -0.0917
vn 0.1373 -0.9842 -0.1118
vn 0.5622 0.8164 -0.1319
vn -0.9632 -0.2216 -0.1521
vn 0.8571 -0.4856 -0.1722
vn -0.3028 0.9334 -0.1924
vn -0.4055 -0.8890 -0.2125
vn 0.8953 0.3798 -0.2327
vn -0.9120 0.3230 -0.2529
vn 0.4517 -0.8493 -0.2732
vn 0.2392 0.9256 -0.2934
vn -0.7962 -0.5174 -0.3137
vn 0.9297 -0.1551 -0.3340
vn -0.5762 0.7365 -0.3543
vn -0.0720 -0.9244 -0.3746
vn 0.6713 0.6272 -0.3949
vn -0.9096 -0.0089 -0.4153
vn 0.6696 -0.6015 -0.4357
vn -0.0864 0.8857 -0.4561
vn -0.5281 -0.7029 -0.4765
vn 0.8530 0.1595 -0.4970
vn -0.7265 0.4522 -0.5174
vn 0.2268 -0.8119 -0.5379
vn 0.3751 0.7398 -0.5585
vn -0.7631 -0.2871 -0.5790
vn 0.7427 -0.2981 -0.5996
vn -0.3394 0.7072 -0.6203
vn -0.2226 -0.7346 -0.6409
vn 0.6451 0.3823 -0.6616
vn -0.7155 0.1500 -0.6824
vn 0.4146 -0.5777 -0.7032
vn 0.0820 0.6849 -0.7240
vn -0.5060 -0.4349 -0.7449
vn 0.6427 -0.0203 -0.7658
vn -0.4417 0.4311 -0.7868
vn 0.0330 -0.5884 -0.8079
vn 0.3540 0.4328 -0.8291
vn -0.5208 -0.0752 -0.8504
vn 0.4048 -0.2759 -0.8718
vn -0.1332 0.4018 -0.9060
vn -0.2174 -0.3182 -0.9228
vn 0.2596 0.0989 -0.9607
vn -0.2590 0.0989 -0.9608
vn 0.0173 -0.1298 -0.9914
usemtl None
s off
f 1//1 2//1 3//1
f 4//2 5//2 6//2
f 7//3 8//3 9//3
f 10//4 11//4 12//4
f 13//5 14//5 15//5
f 16//6 17//6 18//6
f 19//7 20//7 21//7
f 22//8 23//8 24//8
f 25//9 26//9 27//9
f 28//10 29//10 30//10
f 31//11 32//11 33//11
f 34//12 35//12 36//12
f 37//13 38//13 39//13
f 40//14 41//14 42//14
f 43//15 44//15 45//15
f 46//16 47//16 48//16
f 49//17 50//17 51//17
f 52//18 53//18 54//18
f 55//19 56//19 57//19
f 58//20 59//20 60//20
f 61//21 62//21 63//21
f 64//22 65//22 66//22
f 67//23 68//23 69//23
f 70//24 71//24 72//24
f 73//25 74//25 75//25
f 76//26 77//26 78//26
f 79//27 80//27 81//27
f 82//28 83//28 84//28
f 85//29 86//29 87//29
f 88//30 89//30 90//30
f 91//31 92//31 93//31
f 94//32 95//32 96//32
f 97//33 98//33 99//33
f 100//34 101//34 102//34
f 103//35 104//35 105//35
f 106//36 107//36 108//36
f 109//37 110//37 111//37
f 112//38 113//38 114//38
f 115//39 116//39 117//39
f 118//40 119//40 120//40
f 121//41 122//41 123//41
f 124//42 125//42 126//42
f 127//43 128//43 129//43
f 130//44 131//44 132//44
f 133//45 134//45 135//45
f 136//46 137//46 138//46
f 139//47 140//47 141//47
f 142//48 143//48 144//48
f 145//49 146//49 147//49
f 148//50 149//50 150//50
f 151//51 152//51 153//51
f 154//52 155//52 156//52
f 157//53 158//53 159//53
f 160//54 161//54 162//54
f 163//55 164//55 165//55
f 166//56 167//56 168//56
f 169//57 170//57 171//57
f 172//58 173//58 174//58
f 175//59 176//59 177//59
f 178//60 179//60 180//60
f 181//61 182//61 183//61
f 184//62 185//62 186//62
f 187//63 188//63 189//63
f 190//64 191//64 192//64
f 193//65 194//65 195//65
f 196//66 197//66 198//66
f 199//67 200//67 201//67
f 202//68 203//68 204//68
f 205//69 206//69 207//69
f 208//70 209//70 210//70
f 211//71 212//71 213//71
f 214//72 215//72 216//72
f 217//73 218//73 219//73
f 220//74 221//74 222//74
f 223//75 224//75 225//75
f 226//76 227//76 228//76
f 229//77 230//77 231//77
f 232//78 233//78 234//78
f 235//79 236//79 237//79
f 238//80 239//80 240//80
f 241//81 242//81 243//81
f 244//82 245//82 246//82
f 247//83 248//83 249//83
f 250//84 251//84 252//84
f 253//85 254//85 255//85
f 256//86 257//86 258//86
f 259//87 260//87 261//87
f 262//88 263//88 264//88
f 265//89 266//89 267//89
f 268//90 269//90 270//90
f 271//91 272//91 273//91
f 274//92 275//92 276//92
f 277//93 278//93 279//93
f 280//94 281//94 282//94
f 283//95 284//95 285//95
f 286//96 287//96 288//96
f 289//97 290//97 291//97
f 292//98 293//98 294//98
f 295//99 296//99 297//99
f 298//100 299//100 300//100
