# Blender v3.0.0 OBJ File: ''
# www.blender.org
mtllib D12.mtl
o D12
v 0.577350 0.577350 -0.577350
v 0.356822 0.000000 -0.934172
v -0.577350 0.577350 -0.577350
v 0.000000 0.934172 -0.356822
v -0.356822 0.000000 -0.934172
v 0.934172 0.356822 0.000000
v 0.577350 -0.577350 -0.577350
v 0.934172 -0.356822 0.000000
v 0.577350 0.577350 0.577350
v 0.000000 0.934172 0.356822
v -0.577350 -0.577350 -0.577350
v 0.000000 -0.934172 -0.356822
v 0.577350 -0.577350 0.577350
v 0.356822 0.000000 0.934172
v -0.577350 0.577350 0.577350
v -0.934172 0.356822 0.000000
v -0.934172 -0.356822 0.000000
v -0.356822 0.000000 0.934172
v 0.000000 -0.934172 0.356822
v -0.577350 -0.577350 0.577350
vn 0.0000 0.5257 -0.8507
vn 0.8507 0.0000 -0.5257
vn 0.5257 0.8507 0.0000
vn 0.0000 -0.5257 -0.8507
vn 0.8507 0.0000 0.5257
vn -0.5257 0.8507 0.0000
vn -0.8507 0.0000 -0.5257
vn 0.0000 0.5257 0.8507
vn 0.5257 -0.8507 0.0000
vn -0.5257 -0.8507 0.0000
vn -0.8507 0.0000 0.5257
vn 0.0000 -0.5257 0.8507
usemtl None
s off
f 1//1 2//1 3//1
f 1//1 3//1 4//1
f 2//1 5//1 3//1
f 1//2 6//2 7//2
f 1//2 7//2 2//2
f 6//2 8//2 7//2
f 1//3 4//3 9//3
f 1//3 9//3 6//3
f 4//3 10//3 9//3
f 2//4 7//4 11//4
f 2//4 11//4 5//4
f 7//4 12//4 11//4
f 6//5 9//5 13//5
f 6//5 13//5 8//5
f 9//5 14//5 13//5
f 4//6 3//6 15//6
f 4//6 15//6 10//6
f 3//6 16//6 15//6
f 5//7 11//7 16//7
f 5//7 16//7 3//7
f 11//7 17//7 16//7
f 15//8 18//8 9//8
f 15//8 9//8 10//8
f 18//8 14//8 9//8
f 13//9 19//9 7//9
f 13//9 7//9 8//9
f 19//9 12//9 7//9
f 20//10 17//10 12//10
f 20//10 12//10 19//10
f 17//10 11//10 12//10
f 20//11 18//11 16//11
f 20//11 16//11 17//11
f 18//11 15//11 16//11
f 20//12 19//12 14//12
f 20//12 14//12 18//12
f 19//12 13//12 14//12
